# xmcd
#
# Track frame offsets:
#	150
#	17775
#	35025
#	53325
#	69825
#	86775
#	102450
#	120975
#	137100
#	155325
#	170400
#	189750
#	205125
#	222825
#	236850
#	255600
#	273225
#
# Disc length: 3876 seconds
#
# Revision: 1
# Processed by: cddbd v1.5.1PL0 Copyright (c) Steve Scherf et al.
# Submitted via: audiograbber 1.83.01
#
DISCID=e60f2211
DTITLE=Various Artist - BCY002
DYEAR=1900
DGENRE=Karaoke
TTITLE0=Faith Hill - Mississippi Girl
TTITLE1=Toby Keith - As Good As I Once Was
TTITLE2=Van Zant - Help Somebody
TTITLE3=Jamie O Neal - Somebody's Hero
TTITLE4=4th Of July - Shooter Jennings
TTITLE5=Kenny Chesney - Keg In The Closet
TTITLE6=Keith Urban - Making Memories Of Us
TTITLE7=Sugarland - Something More
TTITLE8=Sugarland - Baby Girl
TTITLE9=Blake Shelton - Goodbye Time
TTITLE10=Rascal Flatts - Fast Cars and Freedom
TTITLE11=Trace Adkins - Songs About Me
TTITLE12=Bobby Pinson - Don't Ask Me How I Know
TTITLE13=Jeff Bates - Long Slow Kisses
TTITLE14=Darryl Worley - If Something Should Happen
TTITLE15=Faith Hill - Mississippi Girl Vocal
TTITLE16=Toby Keith - As Good As I Once Was Vocal
EXTD=
EXTT0=
EXTT1=
EXTT2=
EXTT3=
EXTT4=
EXTT5=
EXTT6=
EXTT7=
EXTT8=
EXTT9=
EXTT10=
EXTT11=
EXTT12=
EXTT13=
EXTT14=
EXTT15=
EXTT16=
PLAYORDER=
